<?xml version="1.0" encoding="utf-8"?>
<!-- Generator: Adobe Illustrator 28.7.1, SVG Export Plug-In . SVG Version: 9.03 Build 54978)  -->
<svg version="1.1" id="Layer_1" xmlns="http://www.w3.org/2000/svg" xmlns:xlink="http://www.w3.org/1999/xlink" x="0px" y="0px"
	 viewBox="0 0 180.01 181.91" style="enable-background:new 0 0 180.01 181.91;" xml:space="preserve">
<style type="text/css">
	.st0{fill:#113B28;}
	.st1{fill:#0F3926;}
	.st2{fill:#0E3825;}
	.st3{fill:#0D3825;}
</style>
<path class="st0" d="M179.91,22.3c0-2.11-0.07-4.24-0.32-6.33c-0.89-7.6-5.41-12.74-12.77-14.79c-2.91-0.81-5.87-1.11-8.85-1.11
	C106.44,0.05,54.91,0.07,3.38,0C0.85,0,0,0.59,0,3.27C0.08,56.05,0.01,108.82,0.09,161.6c0.02,13.13,7.36,20.2,20.5,20.22
	c13.94,0.03,27.88,0.01,41.82,0c3.98,0,7.97,0.07,11.95-0.07c2.06-0.07,3.62-1.12,3.73-3.39c0.1-2.09-0.68-3.65-3.11-3.72
	c-0.67,0.44-1.43,0.34-2.17,0.34c-17.89,0-35.78,0.01-53.67-0.01c-0.81,0-1.77,0.38-2.37-0.57c-7.03-2.42-9.13-5.29-9.42-12.88
	c-0.03-0.75-0.01-1.49-0.01-2.24c0-49.3,0-98.59,0.01-147.89c0-1.35-0.25-2.75,0.43-4.03c0.98-0.83,2.15-0.46,3.23-0.46
	c48.89-0.02,97.77-0.02,146.66,0c1.08,0,2.25-0.35,3.25,0.43c6.68,0.83,11.13,4.02,11.78,11.19c0.73,0.54,0.53,1.34,0.53,2.06
	c0.01,50.27,0.01,100.54,0.01,150.82c0,1.39,0.11,2.79-1.42,3.54c-21.49,0.12-42.99,0.02-64.48,0.04c-0.83,0-1.76,0.31-2.43-0.53
	c-5.61-1.2-8.57-4.89-9.67-10.33c-0.88-5.96-0.57-11.92-0.15-17.89c-0.04-13.81-0.02-27.62-0.17-41.43
	c-0.03-2.43,0.45-3.29,3.13-3.57c15.26-1.59,28.04-7.73,35.81-21.61c1.82-3.24,3.51-4.94,7.29-4.37c2.62,0.4,4.53-0.92,4.52-3.67
	c-0.01-2.48-1.75-3.79-4.24-3.68c-2.25,0.1-3.62-0.06-2.49-2.97c0.83-2.13-0.1-4-2.41-4.66c-2.27-0.65-4.44,0.33-4.55,2.57
	c-0.24,5.03-3.43,5.31-7.22,5.65c-12.58,1.14-23.27,5.94-30.74,16.63c-0.17,0.24-0.57,0.32-0.91,0.49c-0.32-1.05-0.62-2-0.89-2.95
	c-7.85-28.6-28.94-44.19-58.6-43.31c-4.46,0.13-5.7,1.49-5.45,5.98C29.95,77.38,52.06,99.62,84,101.29c2.9,0.15,3.67,0.91,3.66,3.81
	c-0.03,18.67,0.11,37.34,0.27,56.01c0.12,13.52,7.41,20.71,20.89,20.72c22.28,0.02,44.56-0.07,66.84,0.08
	c3.37,0.02,4.36-0.77,4.35-4.27C179.89,125.86,179.93,74.08,179.91,22.3z M121.32,77.03c1.21-1.97,3.73-0.85,6.78-1.49
	c-1.91,2.3-2.18,4.83-4.39,4.75C122.71,80.26,120.77,77.92,121.32,77.03z M109.66,80.54c1.44-0.75,3-2.69,4.61-0.06
	c0.7,1.15,1.72,2.1,2.46,3.23c0.55,0.85,2.1,1.6,1.3,2.67c-0.84,1.11-2.32,1.74-3.27,2.4c-1.28,0.17-1.59-0.58-2.01-1.16
	c-0.94-1.3-1.95-2.56-2.75-3.93C109.45,82.75,107.4,81.72,109.66,80.54z M98.69,91.7c1.07-1.8,2.1-4.74,3.71-4.77
	c2.02-0.03,2.71,3.03,4.27,5c-3.09,1.34-5.95,1.33-9.09,2.11C98.09,92.96,98.33,92.3,98.69,91.7z M84.65,93.99
	c-24.07-1.81-43.62-14.87-48.38-42.42c-0.85-4.92-0.72-4.95,4.15-4.77c20.23,0.71,36.1,12.95,43.31,33.56
	c1.26,3.62,2.03,7.41,3.02,11.12C87.23,93.29,86.88,94.16,84.65,93.99z"/>
<path class="st1" d="M172.7,18.52c1.46,0.98,0.88,2.48,0.88,3.76c0.03,49.61,0.03,99.22,0.02,148.83c0,1.56,0.45,3.33-1.48,4.24
	c-0.26-0.17-0.35-0.35-0.27-0.54c0.08-0.19,0.16-0.28,0.25-0.28c0.84-1.24,0.51-2.65,0.51-3.99c0.01-50.18,0-100.37,0-150.55
	C172.59,19.51,172.66,19.02,172.7,18.52z"/>
<path class="st2" d="M7.78,7.36C8.81,6,10.3,6.55,11.59,6.55c48.49-0.03,96.99-0.03,145.48,0c1.3,0,2.77-0.51,3.84,0.78
	c-7.32,0.04-14.65,0.11-21.97,0.1C95.22,7.42,51.5,7.39,7.78,7.36z"/>
<path class="st3" d="M172.08,174.54c0.01,0.27,0.02,0.54,0.02,0.81c-21.02,0-42.04,0.01-63.06-0.03c-1.39,0-3.03,0.67-4.14-0.87
	C127.3,174.48,149.69,174.51,172.08,174.54z"/>
<path class="st3" d="M74.98,174.65c-1,1.09-2.32,0.69-3.51,0.69c-16.99,0.02-33.99,0.03-50.98-0.01c-1.27,0-2.79,0.6-3.72-0.92
	c18.04,0.01,36.09,0.02,54.13,0.05C72.26,174.46,73.62,174.58,74.98,174.65z"/>
<path class="st2" d="M95.24,164.13c-1.66-1.79-0.82-4-0.76-5.96c0.13-3.98-0.86-8.03,0.61-11.93
	C95.14,152.2,95.19,158.16,95.24,164.13z"/>
</svg>
